<svg xmlns="http://www.w3.org/2000/svg" width="96.854" height="96.84" viewBox="0 0 96.854 96.84">
  <g id="cle_work-02" data-name="cle work-02" transform="translate(-0.563 -0.605)">
    <g id="Group_977" data-name="Group 977" transform="translate(18.663 -13.286) rotate(19)">
      <path id="Path_415" data-name="Path 415" d="M9.21,63.52a1.078,1.078,0,0,0,.77-.99,6.707,6.707,0,0,0-.38-2.56,6.239,6.239,0,0,0-.83-1.96.87.87,0,0,0-.94-.41.68.68,0,0,0-.48.38,1.985,1.985,0,0,0-.03.88c.05.41.18,1.06.37,1.96a13.559,13.559,0,0,1,.36,2.37,2.67,2.67,0,0,1-.27,1.42,1.679,1.679,0,0,1-1.03.73A1.576,1.576,0,0,1,5,64.76a7.61,7.61,0,0,1-1.26-2.75,6.473,6.473,0,0,1-.27-3.1,1.9,1.9,0,0,1,1.37-1.54l.37,1.29a.912.912,0,0,0-.61.48,1.955,1.955,0,0,0-.12,1.03,10.277,10.277,0,0,0,.35,1.7,8.926,8.926,0,0,0,.51,1.45,1.517,1.517,0,0,0,.52.65.729.729,0,0,0,.58.06.644.644,0,0,0,.45-.36,1.77,1.77,0,0,0,.06-.85,17.048,17.048,0,0,0-.31-1.75c-.23-1.08-.37-1.91-.44-2.48a2.9,2.9,0,0,1,.16-1.45,1.433,1.433,0,0,1,1.04-.81,1.731,1.731,0,0,1,1.96.57,7.7,7.7,0,0,1,1.29,2.77,8.259,8.259,0,0,1,.4,3.44,2.064,2.064,0,0,1-1.46,1.72Z"/>
      <path id="Path_416" data-name="Path 416" d="M5.53,46.17a3.306,3.306,0,0,1,2.71.95,5.053,5.053,0,0,1,.98,3.24,5.037,5.037,0,0,1-.76,3.31,3.275,3.275,0,0,1-2.64,1.12l-3.54.12-.04-1.25,3.52-.12a3.122,3.122,0,0,0,1.2-.25,1.771,1.771,0,0,0,.85-.91A4.352,4.352,0,0,0,8.1,50.4a4.281,4.281,0,0,0-.43-1.96,1.8,1.8,0,0,0-.92-.86,3.067,3.067,0,0,0-1.2-.16l-3.52.12L1.99,46.3Z"/>
      <path id="Path_417" data-name="Path 417" d="M7.04,43.32a1.08,1.08,0,0,0,1.14-.52,6.7,6.7,0,0,0,.85-2.44,5.95,5.95,0,0,0,.17-2.13.847.847,0,0,0-.64-.79.669.669,0,0,0-.6.11,1.984,1.984,0,0,0-.44.77c-.14.39-.33,1.02-.58,1.91a13.549,13.549,0,0,1-.78,2.27,2.615,2.615,0,0,1-.9,1.13,1.676,1.676,0,0,1-1.25.17,1.594,1.594,0,0,1-1.29-1.33,7.532,7.532,0,0,1,.16-3.02,6.574,6.574,0,0,1,1.2-2.87A1.874,1.874,0,0,1,6,35.85l-.27,1.31a.937.937,0,0,0-.77.15,1.94,1.94,0,0,0-.58.85,10.01,10.01,0,0,0-.48,1.67,9.412,9.412,0,0,0-.21,1.52,1.706,1.706,0,0,0,.15.82.729.729,0,0,0,.49.33.635.635,0,0,0,.56-.11,1.909,1.909,0,0,0,.45-.73,15.794,15.794,0,0,0,.54-1.69c.3-1.06.56-1.86.76-2.4a2.922,2.922,0,0,1,.81-1.21,1.484,1.484,0,0,1,1.3-.24,1.743,1.743,0,0,1,1.47,1.41,7.593,7.593,0,0,1-.14,3.05,8.224,8.224,0,0,1-1.24,3.23,2.029,2.029,0,0,1-2.09.84Z"/>
      <path id="Path_418" data-name="Path 418" d="M8.18,25.52l1.01.47-1.5,3.26,5.24,2.42-.52,1.13L7.17,30.38,5.66,33.65l-1.02-.47Z"/>
      <path id="Path_419" data-name="Path 419" d="M19.25,21.84,18.42,23l-1.71-.18-2.92,4.07.71,1.56-.83,1.16L10.4,22.35l.93-1.29Zm-7.54.48,1.57,3.44,2.2-3.06Z"/>
      <path id="Path_420" data-name="Path 420" d="M15.31,16.39l.88-.89,4.89,4.85-.88.89Z"/>
      <path id="Path_421" data-name="Path 421" d="M27.31,13.83,23.97,9.22l1.02-.74,4.04,5.58-1.45,1.05-7.82-1.37,3.34,4.61-1.02.74-4.04-5.58,1.45-1.05Z"/>
      <path id="Path_422" data-name="Path 422" d="M38.7,10.05l-1.32.52L36.04,9.5l-4.66,1.84-.24,1.7-1.33.53L30.98,5.7l1.48-.58ZM32.1,6.37l-.54,3.75,3.5-1.38Z"/>
      <path id="Path_423" data-name="Path 423" d="M47.24,5.95a1.715,1.715,0,0,1,.39.93,1.865,1.865,0,0,1-.36,1.49,2.416,2.416,0,0,1-1.62.73l-6,.8-.9-6.83,5.96-.79a2.195,2.195,0,0,1,1.65.28,1.687,1.687,0,0,1,.65,1.18,1.971,1.971,0,0,1-.08.91,1.833,1.833,0,0,1-.47.76A1.721,1.721,0,0,1,47.24,5.95ZM40.13,3.96l.24,1.8,4.27-.57a3.949,3.949,0,0,0,.67-.13.589.589,0,0,0,.34-.28,1.009,1.009,0,0,0,.06-.63,1.061,1.061,0,0,0-.22-.6.564.564,0,0,0-.4-.19,2.987,2.987,0,0,0-.69.04Zm5.1,4.1a4.005,4.005,0,0,0,.66-.13.587.587,0,0,0,.34-.3,1.2,1.2,0,0,0,.06-.66,1.089,1.089,0,0,0-.23-.62.6.6,0,0,0-.4-.2,4.571,4.571,0,0,0-.67.04l-4.49.6.25,1.87Z"/>
      <path id="Path_424" data-name="Path 424" d="M49.27,2.11l1.25.02-.13,6.89L49.14,9Z"/>
      <path id="Path_425" data-name="Path 425" d="M54.33,2.37l-.89,5.7,5.23.82L58.49,10,52.02,8.99l1.06-6.81Z"/>
      <path id="Path_426" data-name="Path 426" d="M61.81,3.88l1.2.36-1.97,6.6-1.2-.36Z"/>
      <path id="Path_427" data-name="Path 427" d="M72.88,8.42,72.4,9.43,69.16,7.9l-2.47,5.22-1.12-.53,2.47-5.22L64.79,5.83l.48-1.01Z"/>
      <path id="Path_428" data-name="Path 428" d="M76.52,15.51l4.67-.75,1.28,1.05-6.12.95-1.44,1.75-1.04-.85,1.44-1.75-.25-6.19,1.28,1.05Z"/>
      <path id="Path_429" data-name="Path 429" d="M85.94,33l-1-1.74.08-.8a5.332,5.332,0,0,1-1.06-.86,6.1,6.1,0,0,1-.87-1.18,5.129,5.129,0,0,1-.82-2.46,1.6,1.6,0,0,1,.82-1.47,1.465,1.465,0,0,1,1.26-.15,4.258,4.258,0,0,1,1.29.81,3.03,3.03,0,0,1,.39-.93,1.847,1.847,0,0,1,.67-.63,1.434,1.434,0,0,1,1.43-.05,3.015,3.015,0,0,1,1.26,1.29,3.054,3.054,0,0,1,.47,1.7,1.379,1.379,0,0,1-.73,1.18,1.423,1.423,0,0,1-.8.2,1.934,1.934,0,0,1-.79-.26,7.063,7.063,0,0,1-.95-.68l-.08.88-.21,1.94a2.583,2.583,0,0,0,1.52-.26l.62,1.09a3.389,3.389,0,0,1-2.27.31Zm-.78-3.71.18-1.66.06-.66q.045-.54.09-.93a3.365,3.365,0,0,0-.89-.57.813.813,0,0,0-.71.06.875.875,0,0,0-.43.91,3.813,3.813,0,0,0,.58,1.57A4.4,4.4,0,0,0,85.16,29.29Zm2.1-4.54a.923.923,0,0,0-.39.47,3.435,3.435,0,0,0-.21.83,6.739,6.739,0,0,0,.75.55,1.121,1.121,0,0,0,.5.19.725.725,0,0,0,.42-.1.705.705,0,0,0,.38-.54,1.316,1.316,0,0,0-.23-.83C88.13,24.68,87.72,24.49,87.26,24.75Z"/>
      <path id="Path_430" data-name="Path 430" d="M89.56,42.73l6.29,2.43.22,1.4-7.42-2.89-.24-1.57,6.2-4.99.22,1.41Z"/>
      <path id="Path_431" data-name="Path 431" d="M95.46,56.36l-1.09-.09.47-5.98-1.8-.14-.46,5.78-1.08-.09.46-5.78-1.81-.14-.47,5.98-1.08-.09.57-7.23,6.87.54Z"/>
      <path id="Path_432" data-name="Path 432" d="M88.65,65.03a1.353,1.353,0,0,1-.89,0l-1.68-.52.37-1.19,1.38.43a1.574,1.574,0,0,0,.54.09.473.473,0,0,0,.33-.19,1.786,1.786,0,0,0,.25-.55l1.27-4.07L88,58.33l.37-1.2,6.58,2.05-1.53,4.91a3.367,3.367,0,0,1-1.07,1.73,2.057,2.057,0,0,1-3.1-1.41A1.175,1.175,0,0,1,88.65,65.03Zm4.87-4.98-2.25-.7-1.06,3.41a5.048,5.048,0,0,0-.19.81,1.033,1.033,0,0,0,.13.64,1.444,1.444,0,0,0,1.54.47.979.979,0,0,0,.47-.45,5.659,5.659,0,0,0,.3-.77Z"/>
      <path id="Path_433" data-name="Path 433" d="M91.47,68.91l-.55,1.13-6.2-3.01.55-1.13Z"/>
      <path id="Path_434" data-name="Path 434" d="M85.7,78.42l-.92-.63,3.38-4.95-1.91-1.3L83.2,76l-.92-.63,3.05-4.47L83.4,69.58l.71-1.04,5.69,3.88Z"/>
      <path id="Path_435" data-name="Path 435" d="M84.11,80.09l-.84.93-5.1-4.63.84-.93Z"/>
      <path id="Path_436" data-name="Path 436" d="M75.89,87.59l-.7-.85,4.63-3.81-1.15-1.39-4.48,3.68-.69-.84L78,80.71l-1.15-1.4-4.63,3.81-.69-.84,5.6-4.6L81.5,83Z"/>
      <path id="Path_437" data-name="Path 437" d="M67.4,91.8a2.977,2.977,0,0,1-1.61-.49,4.225,4.225,0,0,1-1.7-3.42,2.924,2.924,0,0,1,.58-1.58,3.634,3.634,0,0,1,1.36-1.1l4.42-2.19,3.06,6.17-4.42,2.19A3.705,3.705,0,0,1,67.4,91.8Zm-.3-5.87a4.885,4.885,0,0,0-1.27.85,1.528,1.528,0,0,0-.46,1.01,2.846,2.846,0,0,0,.37,1.41,2.994,2.994,0,0,0,.9,1.16,1.483,1.483,0,0,0,1.09.24,4.673,4.673,0,0,0,1.44-.5l2.72-1.35-2.07-4.17Z"/>
      <path id="Path_438" data-name="Path 438" d="M50.04,92.08a1.764,1.764,0,0,1-.37-.93,1.842,1.842,0,0,1,.39-1.48,2.459,2.459,0,0,1,1.63-.71l6.02-.7.79,6.84-5.97.69a2.244,2.244,0,0,1-1.64-.3,1.71,1.71,0,0,1-.63-1.19,1.958,1.958,0,0,1,.09-.91,1.846,1.846,0,0,1,.49-.75A2.028,2.028,0,0,1,50.04,92.08ZM52.09,90a3.287,3.287,0,0,0-.66.12.57.57,0,0,0-.34.29,1.182,1.182,0,0,0-.07.66,1.163,1.163,0,0,0,.21.63.63.63,0,0,0,.4.21,4.3,4.3,0,0,0,.67-.03l4.5-.52-.22-1.87Zm5.04,4.18-.21-1.8-4.28.5a4.153,4.153,0,0,0-.67.12.589.589,0,0,0-.34.28,1.073,1.073,0,0,0-.07.63,1.059,1.059,0,0,0,.21.61.617.617,0,0,0,.4.2,4.465,4.465,0,0,0,.68-.03Z"/>
      <path id="Path_439" data-name="Path 439" d="M44.08,92.07l-3.52,3.17-1.64-.19,4.62-4.13.25-2.25,1.33.15-.25,2.25,3.58,5.06-1.65-.19Z"/>
      <path id="Path_440" data-name="Path 440" d="M30.77,91.5a4.974,4.974,0,0,1-3.38-.65,5.977,5.977,0,0,1-1.77-1.3,3.29,3.29,0,0,1-.81-1.49,2.734,2.734,0,0,1,.09-1.5l1.2.62a1.658,1.658,0,0,0,.23,1.42,4.009,4.009,0,0,0,1.55,1.26c1.82.94,3.11.65,3.88-.84a2.288,2.288,0,0,0,.17-2.06,3.6,3.6,0,0,0-1.74-1.59,3.888,3.888,0,0,0-1.92-.51,1.664,1.664,0,0,0-1.3.64l-1.21-.62a2.739,2.739,0,0,1,1.17-.96,3.4,3.4,0,0,1,1.69-.22,5.98,5.98,0,0,1,2.09.68,4.916,4.916,0,0,1,2.5,2.37,3.346,3.346,0,0,1-.23,2.89A3.3,3.3,0,0,1,30.77,91.5Z"/>
      <path id="Path_441" data-name="Path 441" d="M20.57,86.34l3.69-4.44-4.07-3.38.71-.86,5.04,4.18-4.4,5.3Z"/>
      <path id="Path_442" data-name="Path 442" d="M12.75,80.25l-.78.62L8.98,78.38l.78-.62Zm-2.7-4.87.86-.69,3.74,4.69,1.41-1.13-3.62-4.53.85-.68,3.62,4.53,1.42-1.13-3.74-4.69.85-.68,4.53,5.67-5.38,4.3Z"/>
    </g>
    <g id="Group_979" data-name="Group 979">
      <g id="Group_978" data-name="Group 978">
        <path id="Path_443" data-name="Path 443" d="M41.97,58.91c2.43,0,3.81,1.04,4,2.75H43.94c-.13-.61-.75-1.12-1.97-1.12-1.41,0-2.1.69-2.1,1.85s.69,1.87,2.1,1.87c1.22,0,1.84-.52,1.97-1.14h2.03c-.19,1.71-1.57,2.76-4,2.76-2.65,0-4.11-1.23-4.11-3.49s1.46-3.48,4.11-3.48"/>
        <path id="Path_444" data-name="Path 444" d="M47.02,59.1v6.6h6.49V64.07H48.93V59.1Z"/>
        <path id="Path_445" data-name="Path 445" d="M54.57,59.1v6.6h6.84V64.2H56.48V63.15h4.74v-1.5H56.48V60.6h4.93V59.1Zm1.82-1.72v.95l3.6-.74v-.95Z"/>
        <path id="Path_446" data-name="Path 446" d="M73.47,40.02a9.325,9.325,0,0,0-3.18-.47h.16V38.6l5.17-.72V36.49l-8.4,1.07V42.6h3.03c.77,0,2.38,0,2.38.94s-1.61.69-2.48.69H65.86V36.28H62.97v7.95h-1.1a2.557,2.557,0,0,1-2.17-1.12,9.84,9.84,0,0,1-1.57-5.27s-3.38-.72-6.11,2.96a1.447,1.447,0,0,0-.04,1.63,4.424,4.424,0,0,0,1.83,1.79l-22.7-.03c-1.48,0-2.72.02-2.74-1.58-.04-2.6.01-3.96.01-3.96H27.29V50.49a2.791,2.791,0,0,0,2.79,2.79H53.9c1.33,0,1.89-1.08,1.89-2.41l-.03-7.35a3.919,3.919,0,0,1-2.23-1.43c-.18-.3.2-.69.47-.91a3.844,3.844,0,0,1,2.95-.91s.08,4.17.08,6.51a6.869,6.869,0,0,0,2.38,5.59,3.96,3.96,0,0,0,2.59.95h.15l.91-1.2.91,1.2h2.22c7.27,0,9.53,1.06,9.5-8.97-.07-3.3-.94-3.71-2.22-4.33"/>
      </g>
      <path id="Path_447" data-name="Path 447" d="M28.16,33.49h1.37c-.08-.25-.32-.35-.69-.35s-.6.1-.68.35m1.38.52h.62c-.12.46-.53.73-1.29.73-.83,0-1.37-.34-1.37-1.01s.57-1.01,1.33-1.01c.79,0,1.34.33,1.34,1.13H28.13c.05.32.31.43.75.43.41-.01.58-.12.66-.27" fill="#018c75"/>
      <path id="Path_448" data-name="Path 448" d="M30.2,34.68l1.03-.95-1.03-.96h.83l.61.62.61-.62h.83l-1.04.96,1.04.95h-.83l-.61-.62-.61.62Z" fill="#018c75"/>
      <path id="Path_449" data-name="Path 449" d="M34.44,32.71c.75,0,1.22.27,1.32.82h-.64c-.07-.2-.28-.33-.68-.33-.46,0-.72.15-.72.52s.26.52.72.52c.41,0,.61-.12.68-.33h.64c-.1.55-.57.82-1.32.82-.84,0-1.34-.34-1.34-1.01s.51-1.01,1.34-1.01" fill="#018c75"/>
      <path id="Path_450" data-name="Path 450" d="M38.87,33.68v.99h-.61v-.78c0-.44-.16-.66-.67-.66s-.83.23-.83.7v.75h-.62V32.12h.62v1.09a1.3,1.3,0,0,1,1.1-.5c.61,0,1.01.26,1.01.97" fill="#018c75"/>
      <path id="Path_451" data-name="Path 451" d="M41.23,34.11v-.16a4.3,4.3,0,0,0-.84-.1c-.36,0-.54.06-.54.22s.14.2.44.2a4.4,4.4,0,0,0,.94-.16m.62-.41v.97h-.62v-.25a2.453,2.453,0,0,1-1.15.29c-.53,0-.89-.17-.89-.62,0-.51.56-.66,1.12-.66a3.663,3.663,0,0,1,.92.12c-.02-.33-.37-.39-.68-.39a4.019,4.019,0,0,0-1.08.16l-.12-.44a5.374,5.374,0,0,1,1.3-.17c.8,0,1.19.26,1.2.99" fill="#018c75"/>
      <path id="Path_452" data-name="Path 452" d="M44.97,33.68v.99h-.61v-.78c0-.44-.16-.66-.67-.66s-.83.23-.83.7v.75h-.62v-1.9h.62v.44a1.3,1.3,0,0,1,1.1-.5c.61-.01,1.01.25,1.01.96" fill="#018c75"/>
      <path id="Path_453" data-name="Path 453" d="M47.34,33.7c0-.3-.21-.47-.69-.47s-.69.18-.69.47.21.47.69.47.69-.17.69-.47m0-.93h.61v1.69c0,.74-.41,1.05-1.2,1.05a5.607,5.607,0,0,1-1.3-.16l.07-.47a5.347,5.347,0,0,0,1.1.14c.48,0,.71-.14.71-.56V34.3a1.077,1.077,0,0,1-.92.39,1,1,0,1,1,0-1.98,1.077,1.077,0,0,1,.92.39v-.33Z" fill="#018c75"/>
      <path id="Path_454" data-name="Path 454" d="M48.97,33.49h1.37c-.08-.25-.32-.35-.69-.35s-.6.1-.68.35m1.38.52h.62c-.12.46-.53.73-1.29.73-.83,0-1.37-.34-1.37-1.01s.57-1.01,1.33-1.01c.79,0,1.34.33,1.34,1.13H48.94c.05.32.31.43.75.43.41-.01.58-.12.66-.27" fill="#018c75"/>
      <rect id="Rectangle_1301" data-name="Rectangle 1301" width="2.94" height="2.94" transform="translate(22.321 46.429) rotate(-45)" fill="#018c75"/>
      <rect id="Rectangle_1302" data-name="Rectangle 1302" width="2.94" height="2.94" transform="translate(22.322 50.301) rotate(-45)" fill="#018c75"/>
    </g>
  </g>
</svg>
