<svg id="CLE_LOGO" data-name="CLE LOGO" xmlns="http://www.w3.org/2000/svg" width="74" height="42.168" viewBox="0 0 74 42.168">
  <path id="Path_93" data-name="Path 93" d="M638.984,621.174l.029-1.814-21.447,2.727v7.021h33.673c1.076,0,3.312,0,3.312,1.3s-2.236.963-3.453.963H615.485v0h-2.353V620.3h-2.215v11.066h-1.532a3.584,3.584,0,0,1-3.028-1.562,13.738,13.738,0,0,1-2.189-7.343s-4.711-1-8.508,4.125a2.02,2.02,0,0,0-.057,2.27,6.252,6.252,0,0,0,2.544,2.5,5.491,5.491,0,0,0-1.141-.047c-2.062,0-3.786.034-3.82-2.2-.055-3.617.02-5.521.02-5.521h-1.519v16.484a3.888,3.888,0,0,0,3.888,3.888h2.707c1.853,0,2.63-1.5,2.63-3.356l-.045-10.235a5.443,5.443,0,0,1-3.1-2c-.245-.414.282-.956.659-1.261a5.383,5.383,0,0,1,4.111-1.272s.11,5.807.113,9.06a9.6,9.6,0,0,0,3.311,7.788,5.536,5.536,0,0,0,3.6,1.328l.206,0,1.262-1.673,1.262,1.673h33.272c10.125,0,13.268,1.475,13.221-12.493-.075-4.58-1.294-5.158-3.068-6.008-1.6-.769-8.953-.656-9.548-.656H622.065v-1.33Z" transform="translate(-584.788 -619.36)" fill="#fff"/>
  <rect id="Rectangle_129" data-name="Rectangle 129" width="4.092" height="4.092" transform="translate(0 15.181) rotate(-45)" fill="#fff"/>
  <rect id="Rectangle_130" data-name="Rectangle 130" width="4.092" height="4.092" transform="translate(0 20.565) rotate(-45)" fill="#fff"/>
  <path id="Path_94" data-name="Path 94" d="M738.2,929.359c3.386,0,5.3,1.455,5.575,3.824h-2.832c-.18-.85-1.043-1.558-2.743-1.558-1.97,0-2.922.966-2.922,2.575s.965,2.6,2.922,2.6c1.7,0,2.562-.721,2.743-1.583h2.832c-.27,2.382-2.189,3.85-5.575,3.85-3.695,0-5.716-1.712-5.716-4.867s2.021-4.841,5.716-4.841" transform="translate(-710.839 -896.898)" fill="#fff"/>
  <path id="Path_95" data-name="Path 95" d="M854.208,931.819v9.193h9.038v-2.266h-6.373v-6.927Z" transform="translate(-819.819 -899.1)" fill="#fff"/>
  <path id="Path_96" data-name="Path 96" d="M954.664,902.538v9.192h9.527v-2.086h-6.862v-1.468h6.6v-2.086h-6.6v-1.468h6.862v-2.086Zm2.523-2.395v1.326l5.008-1.03v-1.326Z" transform="translate(-909.756 -869.819)" fill="#fff"/>
</svg>
