<svg xmlns="http://www.w3.org/2000/svg" width="144.485" height="144.554" viewBox="0 0 144.485 144.554">
  <g id="Group_1113" data-name="Group 1113" transform="translate(-524 -2994)">
    <g id="Group_140" data-name="Group 140" transform="translate(-437.311 2658.358)">
      <g id="Group_141" data-name="Group 141">
        <g id="Group_140-2" data-name="Group 140">
          <path id="Path_38" data-name="Path 38" d="M1038.576,335.874a5.9,5.9,0,0,1,1.782.366,3.433,3.433,0,0,1,1.2.766,2.685,2.685,0,0,1,.653,1.086,3.594,3.594,0,0,1,.145,1.322,3.721,3.721,0,0,1-.337,1.352,2.812,2.812,0,0,1-.813,1.019,3.461,3.461,0,0,1-1.3.61,5.684,5.684,0,0,1-1.784.128l-1.327-.09-.236,3.485-2.095-.142.686-10.134Zm-.341,5.043a1.933,1.933,0,0,0,1.474-.377,1.8,1.8,0,0,0,.546-1.269,2.009,2.009,0,0,0-.068-.7,1.388,1.388,0,0,0-.314-.555,1.576,1.576,0,0,0-.567-.378,2.7,2.7,0,0,0-.837-.177l-1.327-.09-.234,3.451Z"/>
          <path id="Path_39" data-name="Path 39" d="M1051.487,348.315l-1.852-.409a.823.823,0,0,1-.664-.563l-1.215-3.458a.82.82,0,0,0-.2-.317.862.862,0,0,0-.4-.173l-.7-.154-.835,3.78-2.051-.454,2.192-9.917,3.117.688a6.578,6.578,0,0,1,1.729.609,3.477,3.477,0,0,1,1.077.865,2.353,2.353,0,0,1,.49,1.065,3.126,3.126,0,0,1-.039,1.214,3.158,3.158,0,0,1-.347.9,2.81,2.81,0,0,1-.584.713,3.022,3.022,0,0,1-.8.5,3.481,3.481,0,0,1-.988.254,2.041,2.041,0,0,1,.31.345,1.859,1.859,0,0,1,.228.434Zm-3.651-6.284a2.7,2.7,0,0,0,.89.064,1.65,1.65,0,0,0,.67-.217,1.379,1.379,0,0,0,.458-.447,1.907,1.907,0,0,0,.254-.633,1.372,1.372,0,0,0-.226-1.2,2.246,2.246,0,0,0-1.339-.7l-1.066-.236-.694,3.138Z"/>
          <path id="Path_40" data-name="Path 40" d="M1057.715,341.6l-.924,2.442,3.169,1.2-.563,1.487-3.168-1.2-.944,2.5,4.072,1.541-.582,1.538-6.049-2.289,3.594-9.5,6.05,2.289-.583,1.538Z"/>
          <path id="Path_41" data-name="Path 41" d="M1062.61,347.411l3.285,1.695-.726,1.406-3.284-1.7Z"/>
          <path id="Path_42" data-name="Path 42" d="M1076.521,356.083a5.6,5.6,0,0,1-1.5,1.469,4.822,4.822,0,0,1-1.813.732,4.9,4.9,0,0,1-1.969-.06,5.918,5.918,0,0,1-3.473-2.458,4.918,4.918,0,0,1-.714-1.839,4.8,4.8,0,0,1,.085-1.956,5.852,5.852,0,0,1,2.384-3.368,4.816,4.816,0,0,1,1.813-.727,4.93,4.93,0,0,1,1.972.062,5.924,5.924,0,0,1,3.474,2.458,4.79,4.79,0,0,1,.621,3.793A5.566,5.566,0,0,1,1076.521,356.083Zm-1.755-1.242a4.549,4.549,0,0,0,.656-1.29,3.044,3.044,0,0,0,.128-1.229,2.6,2.6,0,0,0-.391-1.109,3.294,3.294,0,0,0-.907-.929,3.332,3.332,0,0,0-1.181-.549,2.6,2.6,0,0,0-1.177,0,3.028,3.028,0,0,0-1.118.53,5.014,5.014,0,0,0-1.658,2.342,2.986,2.986,0,0,0-.126,1.227,2.614,2.614,0,0,0,.4,1.108,3.329,3.329,0,0,0,.91.931,3.292,3.292,0,0,0,1.179.547,2.62,2.62,0,0,0,1.172,0,3.012,3.012,0,0,0,1.116-.527A4.571,4.571,0,0,0,1074.766,354.841Z"/>
          <path id="Path_43" data-name="Path 43" d="M1091.551,364.3l-9.6,4.579-1.287-1.393,3.468-6.035c.046-.088.1-.181.16-.281s.127-.2.2-.309c-.111.065-.22.123-.324.175s-.2.1-.293.137l-6.3,2.966-1.292-1.4,5.327-9.2,1.2,1.3a.781.781,0,0,1,.218.422.564.564,0,0,1-.083.406L1079.8,360.7q-.136.2-.3.434t-.352.482c.183-.112.358-.213.523-.3s.325-.167.479-.234l5.45-2.538a.669.669,0,0,1,.4-.039.715.715,0,0,1,.411.234l.419.453a.721.721,0,0,1,.206.414.791.791,0,0,1-.071.413L1084,365.249c-.072.143-.156.29-.253.443s-.2.312-.318.475l.482-.3q.227-.139.431-.251l5.274-2.729a.6.6,0,0,1,.4-.044.743.743,0,0,1,.412.239Z"/>
          <path id="Path_44" data-name="Path 44" d="M1097.845,374.76l-8.728,5.195-.554-.932a.965.965,0,0,1-.143-.4,1.006,1.006,0,0,1,.069-.424l2.946-7.643c-.134.1-.267.187-.4.274s-.257.165-.373.234l-5.047,3.005-.949-1.594,8.728-5.2.566.95a2.182,2.182,0,0,1,.107.2.5.5,0,0,1,.045.173.641.641,0,0,1-.011.178,1.573,1.573,0,0,1-.066.218l-2.951,7.687c.143-.106.283-.206.421-.3s.27-.178.4-.254l4.993-2.972Z"/>
          <path id="Path_45" data-name="Path 45" d="M1098.8,381.032l-2.426.966,1.254,3.148-1.477.587-1.254-3.147-2.477.987,1.611,4.045-1.528.609-2.394-6.009,9.437-3.759,2.393,6.009-1.528.608Z"/>
          <path id="Path_46" data-name="Path 46" d="M1100.087,397.787a5.447,5.447,0,0,1-2.079.086,4.648,4.648,0,0,1-1.8-.677,4.82,4.82,0,0,1-1.387-1.37,5.757,5.757,0,0,1-.837-1.992l-.861-3.81,9.907-2.239.862,3.811a5.745,5.745,0,0,1,.1,2.159,4.79,4.79,0,0,1-.665,1.833,4.713,4.713,0,0,1-1.334,1.385A5.387,5.387,0,0,1,1100.087,397.787Zm-.475-2.1a4.577,4.577,0,0,0,1.354-.522,3.033,3.033,0,0,0,.919-.825,2.638,2.638,0,0,0,.451-1.081,3.258,3.258,0,0,0-.049-1.3l-.4-1.748-6.7,1.514.4,1.748a3.271,3.271,0,0,0,.51,1.194,2.56,2.56,0,0,0,.873.782,3.048,3.048,0,0,0,1.187.349A4.6,4.6,0,0,0,1099.612,395.685Z"/>
          <path id="Path_47" data-name="Path 47" d="M1105.74,408.212a5.87,5.87,0,0,1-.274,1.8,3.421,3.421,0,0,1-.7,1.238,2.682,2.682,0,0,1-1.051.708,3.582,3.582,0,0,1-1.313.213,3.721,3.721,0,0,1-1.368-.267,2.816,2.816,0,0,1-1.058-.759,3.454,3.454,0,0,1-.676-1.264,5.673,5.673,0,0,1-.22-1.775l.022-1.33-3.494-.056.035-2.1,10.156.165Zm-5.053-.082a1.926,1.926,0,0,0,.453,1.453,1.794,1.794,0,0,0,1.294.48,1.984,1.984,0,0,0,.691-.1,1.361,1.361,0,0,0,.537-.341,1.568,1.568,0,0,0,.35-.586,2.712,2.712,0,0,0,.133-.845l.021-1.33-3.458-.056Z"/>
          <path id="Path_48" data-name="Path 48" d="M1094.207,421.788l.281-1.876a.825.825,0,0,1,.517-.7l3.367-1.447a.83.83,0,0,0,.3-.221.853.853,0,0,0,.145-.406l.107-.706-3.828-.576.312-2.077,10.044,1.511-.475,3.157a6.524,6.524,0,0,1-.489,1.767,3.506,3.506,0,0,1-.789,1.134,2.349,2.349,0,0,1-1.029.56,3.277,3.277,0,0,1-2.138-.24,2.818,2.818,0,0,1-.751-.534,3,3,0,0,1-.551-.763,3.5,3.5,0,0,1-.321-.968,2.076,2.076,0,0,1-.323.333,1.8,1.8,0,0,1-.417.256Zm6.02-4.071a2.687,2.687,0,0,0,0,.891,1.662,1.662,0,0,0,.262.656,1.376,1.376,0,0,0,.478.425,1.931,1.931,0,0,0,.647.211,1.376,1.376,0,0,0,1.179-.307,2.245,2.245,0,0,0,.612-1.385l.162-1.079-3.176-.479Z"/>
          <path id="Path_49" data-name="Path 49" d="M1095.7,433.828a5.585,5.585,0,0,1-1.845-1,4.769,4.769,0,0,1-1.754-3.417,5.935,5.935,0,0,1,1.328-4.044,4.925,4.925,0,0,1,1.547-1.222,4.806,4.806,0,0,1,1.894-.495,5.876,5.876,0,0,1,3.921,1.288,4.824,4.824,0,0,1,1.228,1.52,4.934,4.934,0,0,1,.521,1.9,5.917,5.917,0,0,1-1.328,4.044,4.787,4.787,0,0,1-3.444,1.709A5.519,5.519,0,0,1,1095.7,433.828Zm.671-2.042a4.515,4.515,0,0,0,1.426.247,3.038,3.038,0,0,0,1.213-.238,2.616,2.616,0,0,0,.944-.7,3.62,3.62,0,0,0,.8-2.431,2.607,2.607,0,0,0-.345-1.126,3.017,3.017,0,0,0-.835-.912,4.522,4.522,0,0,0-1.3-.647,4.58,4.58,0,0,0-1.431-.249,3,3,0,0,0-1.21.24,2.617,2.617,0,0,0-.943.7,3.354,3.354,0,0,0-.623,1.143,3.317,3.317,0,0,0-.176,1.287,2.642,2.642,0,0,0,.343,1.123,3.008,3.008,0,0,0,.832.91A4.575,4.575,0,0,0,1096.374,431.786Z"/>
          <path id="Path_50" data-name="Path 50" d="M1090.168,444.308A5.46,5.46,0,0,1,1088.55,443a4.654,4.654,0,0,1-.9-1.7,4.829,4.829,0,0,1-.134-1.945,5.765,5.765,0,0,1,.687-2.048l1.873-3.428,8.914,4.869-1.873,3.428a5.746,5.746,0,0,1-1.351,1.686,4.809,4.809,0,0,1-1.711.936,4.7,4.7,0,0,1-1.917.157A5.4,5.4,0,0,1,1090.168,444.308Zm1.033-1.893a4.547,4.547,0,0,0,1.361.5,3.006,3.006,0,0,0,1.234-.012,2.634,2.634,0,0,0,1.054-.512,3.285,3.285,0,0,0,.821-1.007l.859-1.574-6.027-3.292-.858,1.574a3.291,3.291,0,0,0-.408,1.233,2.581,2.581,0,0,0,.139,1.164,3.056,3.056,0,0,0,.66,1.047A4.606,4.606,0,0,0,1091.2,442.415Z"/>
          <path id="Path_51" data-name="Path 51" d="M1083.342,447.684a2.344,2.344,0,0,0-.439.823,1.9,1.9,0,0,0-.048.84,2.115,2.115,0,0,0,.33.809,3.166,3.166,0,0,0,.695.744l4.724,3.777-1.31,1.64-4.725-3.776a4.7,4.7,0,0,1-1.14-1.292,3.809,3.809,0,0,1-.511-1.5,3.852,3.852,0,0,1,.156-1.6,4.788,4.788,0,0,1,.868-1.592,4.845,4.845,0,0,1,1.363-1.2,3.882,3.882,0,0,1,1.525-.506,3.839,3.839,0,0,1,1.572.168,4.68,4.68,0,0,1,1.512.828l4.725,3.776-1.312,1.641-4.724-3.777a3.238,3.238,0,0,0-.879-.515,2.141,2.141,0,0,0-.863-.142,1.894,1.894,0,0,0-.808.232A2.361,2.361,0,0,0,1083.342,447.684Z"/>
          <path id="Path_52" data-name="Path 52" d="M1074.274,458.1a.379.379,0,0,1-.3.1l-1.215-.1a3.966,3.966,0,0,1,.338-1.908,5.308,5.308,0,0,1,1.342-1.758,5.173,5.173,0,0,1,1.782-1.086,4.48,4.48,0,0,1,1.873-.234,4.816,4.816,0,0,1,1.83.565,6.435,6.435,0,0,1,2.489,2.491,5.016,5.016,0,0,1,.486,1.254,4.818,4.818,0,0,1,.131,1.278,4.627,4.627,0,0,1-.217,1.258,4.846,4.846,0,0,1-.575,1.187,5.66,5.66,0,0,1-.931,1.073,5.539,5.539,0,0,1-.854.637,5.1,5.1,0,0,1-.876.424,4.236,4.236,0,0,1-.879.223,4.6,4.6,0,0,1-.854.041l-.123-1.192a.7.7,0,0,1,.011-.227.462.462,0,0,1,.151-.23.593.593,0,0,1,.332-.139c.139-.018.3-.046.49-.084a3.056,3.056,0,0,0,.641-.22,3.174,3.174,0,0,0,.784-.548,2.912,2.912,0,0,0,.713-.954,2.541,2.541,0,0,0,.229-1.108,3.082,3.082,0,0,0-.281-1.2,4.644,4.644,0,0,0-.814-1.216,4.341,4.341,0,0,0-1.148-.93,3.2,3.2,0,0,0-1.186-.386,2.608,2.608,0,0,0-1.134.123,2.8,2.8,0,0,0-.992.589,5.187,5.187,0,0,0-.457.46,2.7,2.7,0,0,0-.321.449,2.38,2.38,0,0,0-.2.476,2.838,2.838,0,0,0-.1.547.891.891,0,0,1-.049.185A.389.389,0,0,1,1074.274,458.1Z"/>
          <path id="Path_53" data-name="Path 53" d="M1069.171,468.911l2.472-1.642-4.685-7.048,1.755-1.166,4.684,7.048,2.472-1.644.939,1.411-6.7,4.452Z"/>
          <path id="Path_54" data-name="Path 54" d="M1061.655,472.386a.8.8,0,0,1,.077-.3.438.438,0,0,1,.2-.181.646.646,0,0,1,.346-.047c.139.013.3.023.478.03a4.017,4.017,0,0,0,.593-.027,2.147,2.147,0,0,0,.7-.217,1.588,1.588,0,0,0,.841-.768,1.088,1.088,0,0,0-.043-.924.8.8,0,0,0-.422-.414,1.764,1.764,0,0,0-.639-.115,4.912,4.912,0,0,0-.789.063c-.285.045-.579.084-.884.12a7.354,7.354,0,0,1-.916.051,3,3,0,0,1-.887-.138,2.349,2.349,0,0,1-.8-.449,2.643,2.643,0,0,1-.651-.886,3.483,3.483,0,0,1-.348-1.275,3.081,3.081,0,0,1,.167-1.255,3.23,3.23,0,0,1,.7-1.129,4.182,4.182,0,0,1,1.251-.893,4.812,4.812,0,0,1,.909-.33,5.6,5.6,0,0,1,.951-.158,5.211,5.211,0,0,1,.936.014,3.623,3.623,0,0,1,.855.194l-.122,1.163a.629.629,0,0,1-.1.254.52.52,0,0,1-.207.183.738.738,0,0,1-.421.048c-.166-.023-.356-.046-.569-.067a3.759,3.759,0,0,0-.7,0,2.363,2.363,0,0,0-.839.25,1.732,1.732,0,0,0-.878.8,1.232,1.232,0,0,0,.075,1.077.933.933,0,0,0,.45.474,1.635,1.635,0,0,0,.643.132,4.115,4.115,0,0,0,.783-.071q.422-.076.874-.139a6.87,6.87,0,0,1,.908-.066,2.609,2.609,0,0,1,.888.146,2.457,2.457,0,0,1,.816.491,3.072,3.072,0,0,1,.695.978,2.814,2.814,0,0,1,.277,1.087,2.783,2.783,0,0,1-.181,1.138,3.315,3.315,0,0,1-.671,1.063,3.932,3.932,0,0,1-1.2.859,4.954,4.954,0,0,1-1.652.484,3.819,3.819,0,0,1-1.531-.134Z"/>
          <path id="Path_55" data-name="Path 55" d="M1028.852,479.982a5.9,5.9,0,0,1-1.784-.357,3.413,3.413,0,0,1-1.2-.759,2.679,2.679,0,0,1-.658-1.083,3.56,3.56,0,0,1-.152-1.321,3.7,3.7,0,0,1,.33-1.354,2.8,2.8,0,0,1,.807-1.022,3.462,3.462,0,0,1,1.294-.617,5.689,5.689,0,0,1,1.784-.138l1.327.083.217-3.485,2.1.131-.635,10.136Zm.316-5.044a1.931,1.931,0,0,0-1.473.385,1.8,1.8,0,0,0-.539,1.271,1.981,1.981,0,0,0,.073.7,1.349,1.349,0,0,0,.316.553,1.575,1.575,0,0,0,.568.376,2.721,2.721,0,0,0,.838.172l1.328.083.216-3.452Z"/>
          <path id="Path_56" data-name="Path 56" d="M1015.894,467.614l1.854.4a.825.825,0,0,1,.668.559l1.232,3.451a.825.825,0,0,0,.2.316.847.847,0,0,0,.4.171l.7.15.816-3.784,2.053.442-2.138,9.93-3.12-.672a6.547,6.547,0,0,1-1.734-.6,3.5,3.5,0,0,1-1.082-.86,2.346,2.346,0,0,1-.494-1.062,3.1,3.1,0,0,1,.032-1.214,3.162,3.162,0,0,1,.341-.9,2.831,2.831,0,0,1,.58-.716,3,3,0,0,1,.8-.5,3.464,3.464,0,0,1,.986-.261,2.077,2.077,0,0,1-.312-.343,1.848,1.848,0,0,1-.229-.432Zm3.685,6.264a2.69,2.69,0,0,0-.89-.06,1.673,1.673,0,0,0-.669.221,1.39,1.39,0,0,0-.456.45,1.961,1.961,0,0,0-.251.634,1.373,1.373,0,0,0,.234,1.2,2.244,2.244,0,0,0,1.343.7l1.067.229.676-3.141Z"/>
          <path id="Path_57" data-name="Path 57" d="M1009.67,474.355l.912-2.446-3.175-1.183.556-1.49,3.175,1.184.93-2.5-4.079-1.521.574-1.542,6.061,2.259-3.547,9.518-6.061-2.259.575-1.541Z"/>
          <path id="Path_58" data-name="Path 58" d="M1004.768,468.574l-3.294-1.678.717-1.409,3.294,1.677Z"/>
          <path id="Path_59" data-name="Path 59" d="M990.81,459.975A5.578,5.578,0,0,1,992.3,458.5a4.838,4.838,0,0,1,1.808-.742,4.9,4.9,0,0,1,1.97.05,5.919,5.919,0,0,1,3.486,2.44,4.91,4.91,0,0,1,.724,1.835,4.816,4.816,0,0,1-.074,1.956,5.875,5.875,0,0,1-2.366,3.381,4.819,4.819,0,0,1-1.811.736,4.908,4.908,0,0,1-1.972-.051,5.926,5.926,0,0,1-3.486-2.44,4.793,4.793,0,0,1-.642-3.79A5.563,5.563,0,0,1,990.81,459.975Zm1.76,1.232a4.567,4.567,0,0,0-.648,1.293,3.029,3.029,0,0,0-.122,1.23,2.618,2.618,0,0,0,.4,1.107,3.607,3.607,0,0,0,2.1,1.467,2.588,2.588,0,0,0,1.178,0,3.052,3.052,0,0,0,1.114-.536,4.583,4.583,0,0,0,.993-1.053,4.509,4.509,0,0,0,.652-1.3,3,3,0,0,0,.121-1.227,2.6,2.6,0,0,0-.4-1.106,3.616,3.616,0,0,0-2.095-1.467,2.624,2.624,0,0,0-1.173,0,3.016,3.016,0,0,0-1.113.533A4.584,4.584,0,0,0,992.57,461.207Z"/>
          <path id="Path_60" data-name="Path 60" d="M975.734,451.837l9.575-4.63,1.295,1.387-3.438,6.052c-.046.088-.1.182-.158.283s-.126.2-.2.31c.111-.065.218-.125.323-.177s.2-.1.292-.139l6.288-3,1.3,1.391-5.28,9.229-1.2-1.289a.8.8,0,0,1-.22-.421.575.575,0,0,1,.081-.406l3.11-5.059c.091-.136.189-.281.3-.435s.224-.316.349-.484c-.182.112-.356.214-.521.3s-.324.169-.479.236l-5.436,2.568a.671.671,0,0,1-.4.041.723.723,0,0,1-.414-.233l-.419-.45a.715.715,0,0,1-.209-.413.773.773,0,0,1,.069-.414l2.938-5.243c.071-.143.155-.291.25-.445s.2-.312.317-.476c-.169.106-.329.206-.482.3s-.295.178-.429.253l-5.26,2.756a.594.594,0,0,1-.4.046.739.739,0,0,1-.413-.237Z"/>
          <path id="Path_61" data-name="Path 61" d="M969.374,441.386l8.7-5.239.56.93a.946.946,0,0,1,.144.4.984.984,0,0,1-.067.423l-2.907,7.658q.2-.144.4-.276t.372-.236l5.031-3.029.957,1.59-8.7,5.237-.57-.947a1.994,1.994,0,0,1-.108-.2.479.479,0,0,1-.046-.171.681.681,0,0,1,.01-.179,1.456,1.456,0,0,1,.065-.219l2.913-7.7c-.142.107-.281.208-.419.3s-.269.178-.4.256l-4.978,3Z"/>
          <path id="Path_62" data-name="Path 62" d="M968.389,435.123l2.421-.978L969.54,431l1.474-.6,1.269,3.141,2.473-1-1.632-4.037,1.525-.617,2.424,6-9.417,3.8-2.424-6,1.526-.616Z"/>
          <path id="Path_63" data-name="Path 63" d="M967.021,418.38a5.476,5.476,0,0,1,2.079-.1,4.672,4.672,0,0,1,1.8.668,4.851,4.851,0,0,1,1.393,1.363,5.745,5.745,0,0,1,.848,1.989l.88,3.8-9.9,2.289-.88-3.8a5.736,5.736,0,0,1-.111-2.158,4.8,4.8,0,0,1,.656-1.837,4.71,4.71,0,0,1,1.327-1.392A5.42,5.42,0,0,1,967.021,418.38Zm.486,2.1a4.586,4.586,0,0,0-1.352.529,3.024,3.024,0,0,0-.914.829,2.64,2.64,0,0,0-.446,1.084,3.239,3.239,0,0,0,.056,1.3l.4,1.746,6.69-1.547-.4-1.746a3.278,3.278,0,0,0-.517-1.192,2.558,2.558,0,0,0-.876-.778,3.077,3.077,0,0,0-1.189-.343A4.581,4.581,0,0,0,967.507,420.48Z"/>
          <path id="Path_64" data-name="Path 64" d="M961.312,408.25a5.883,5.883,0,0,1,.215-1.806,3.457,3.457,0,0,1,.662-1.26,2.693,2.693,0,0,1,1.028-.742,3.561,3.561,0,0,1,1.3-.255,3.728,3.728,0,0,1,1.375.222,2.808,2.808,0,0,1,1.083.725,3.443,3.443,0,0,1,.717,1.242,5.677,5.677,0,0,1,.278,1.767l.021,1.329,3.492-.057.034,2.1-10.155.164Zm5.053-.082a1.931,1.931,0,0,0-.5-1.438,1.8,1.8,0,0,0-1.308-.436,1.976,1.976,0,0,0-.688.126,1.379,1.379,0,0,0-.526.358,1.579,1.579,0,0,0-.33.6,2.707,2.707,0,0,0-.106.849l.022,1.33,3.458-.057Z"/>
          <path id="Path_65" data-name="Path 65" d="M972.778,394.353l-.272,1.877a.826.826,0,0,1-.513.7l-3.36,1.464a.826.826,0,0,0-.3.222.863.863,0,0,0-.144.407l-.1.706,3.83.557-.3,2.078-10.051-1.459.458-3.159a6.568,6.568,0,0,1,.48-1.77,3.5,3.5,0,0,1,.784-1.137,2.355,2.355,0,0,1,1.027-.566,3.278,3.278,0,0,1,2.138.229,2.817,2.817,0,0,1,.754.53,3.019,3.019,0,0,1,.555.76,3.466,3.466,0,0,1,.326.967,2.032,2.032,0,0,1,.321-.335,1.823,1.823,0,0,1,.416-.258Zm-6,4.1a2.681,2.681,0,0,0,0-.892,1.65,1.65,0,0,0-.265-.654,1.389,1.389,0,0,0-.481-.423,1.957,1.957,0,0,0-.648-.208,1.379,1.379,0,0,0-1.178.315,2.243,2.243,0,0,0-.6,1.386l-.157,1.081,3.18.461Z"/>
          <path id="Path_66" data-name="Path 66" d="M971.222,382.314a5.6,5.6,0,0,1,1.85.991,4.846,4.846,0,0,1,1.241,1.511,4.917,4.917,0,0,1,.531,1.9,5.935,5.935,0,0,1-1.308,4.051,4.928,4.928,0,0,1-1.542,1.23,4.82,4.82,0,0,1-1.89.5,5.626,5.626,0,0,1-2.081-.278,5.56,5.56,0,0,1-1.846-.991,4.8,4.8,0,0,1-1.237-1.513,4.959,4.959,0,0,1-.53-1.9,5.925,5.925,0,0,1,1.308-4.049,4.8,4.8,0,0,1,3.434-1.727A5.54,5.54,0,0,1,971.222,382.314Zm-.66,2.045a4.565,4.565,0,0,0-1.427-.24,3.042,3.042,0,0,0-1.212.245,2.6,2.6,0,0,0-.941.7,3.606,3.606,0,0,0-.787,2.434,2.618,2.618,0,0,0,.351,1.125,3.033,3.033,0,0,0,.84.907,4.521,4.521,0,0,0,1.3.641,4.594,4.594,0,0,0,1.433.242,3.012,3.012,0,0,0,1.208-.246,2.611,2.611,0,0,0,.939-.709,3.61,3.61,0,0,0,.787-2.435,2.622,2.622,0,0,0-.349-1.12,2.988,2.988,0,0,0-.836-.906A4.573,4.573,0,0,0,970.562,384.359Z"/>
          <path id="Path_67" data-name="Path 67" d="M976.7,371.825a5.438,5.438,0,0,1,1.625,1.3,4.651,4.651,0,0,1,.912,1.693,4.815,4.815,0,0,1,.145,1.943,5.742,5.742,0,0,1-.677,2.052l-1.854,3.438-8.94-4.821,1.854-3.438A5.756,5.756,0,0,1,971.1,372.3a4.793,4.793,0,0,1,1.707-.945,4.671,4.671,0,0,1,1.915-.167A5.382,5.382,0,0,1,976.7,371.825Zm-1.023,1.9a4.569,4.569,0,0,0-1.362-.5,3.023,3.023,0,0,0-1.235.018,2.622,2.622,0,0,0-1.052.519,3.262,3.262,0,0,0-.815,1.011l-.851,1.578,6.044,3.259.851-1.577a3.3,3.3,0,0,0,.4-1.236,2.577,2.577,0,0,0-.144-1.163,3.079,3.079,0,0,0-.666-1.044A4.624,4.624,0,0,0,975.673,373.722Z"/>
          <path id="Path_68" data-name="Path 68" d="M983.5,368.411a2.323,2.323,0,0,0,.434-.826,1.873,1.873,0,0,0,.044-.84,2.106,2.106,0,0,0-.334-.808,3.2,3.2,0,0,0-.7-.741l-4.744-3.751,1.3-1.647,4.744,3.751a4.7,4.7,0,0,1,1.146,1.286,3.823,3.823,0,0,1,.519,1.495,3.869,3.869,0,0,1-.147,1.6,5.224,5.224,0,0,1-2.216,2.8,3.759,3.759,0,0,1-3.1.355,4.724,4.724,0,0,1-1.517-.819l-4.744-3.752,1.3-1.647,4.744,3.751a3.207,3.207,0,0,0,.882.51,2.143,2.143,0,0,0,.863.139,1.892,1.892,0,0,0,.808-.237A2.349,2.349,0,0,0,983.5,368.411Z"/>
          <path id="Path_69" data-name="Path 69" d="M992.536,357.926a.392.392,0,0,1,.3-.1l1.215.1a3.967,3.967,0,0,1-.328,1.91,5.354,5.354,0,0,1-1.333,1.764,5.2,5.2,0,0,1-1.778,1.1,4.449,4.449,0,0,1-1.872.243,4.806,4.806,0,0,1-1.833-.556,6.439,6.439,0,0,1-2.5-2.479,5.1,5.1,0,0,1-.492-1.252,4.858,4.858,0,0,1-.137-1.277,4.6,4.6,0,0,1,.212-1.259,4.872,4.872,0,0,1,.568-1.19,5.643,5.643,0,0,1,.927-1.077,5.565,5.565,0,0,1,.85-.642,5.1,5.1,0,0,1,.874-.427,4.305,4.305,0,0,1,.878-.228,4.515,4.515,0,0,1,.854-.044l.128,1.19a.654.654,0,0,1-.01.228.448.448,0,0,1-.15.23.582.582,0,0,1-.331.141c-.138.019-.3.047-.489.087a3,3,0,0,0-.64.223,3.188,3.188,0,0,0-.781.55,2.9,2.9,0,0,0-.708.959,2.551,2.551,0,0,0-.225,1.109,3.081,3.081,0,0,0,.286,1.193,4.628,4.628,0,0,0,.822,1.212,4.36,4.36,0,0,0,1.151.925,3.2,3.2,0,0,0,1.19.38,2.6,2.6,0,0,0,1.132-.129,2.806,2.806,0,0,0,.989-.593,5.288,5.288,0,0,0,.455-.462,2.674,2.674,0,0,0,.318-.451,2.363,2.363,0,0,0,.2-.477,2.924,2.924,0,0,0,.1-.547.846.846,0,0,1,.048-.186A.4.4,0,0,1,992.536,357.926Z"/>
          <path id="Path_70" data-name="Path 70" d="M997.564,347.108l-2.462,1.656,4.721,7.024-1.748,1.175-4.721-7.023L990.89,351.6l-.945-1.406,6.675-4.487Z"/>
          <path id="Path_71" data-name="Path 71" d="M1005.061,343.6a.81.81,0,0,1-.077.3.44.44,0,0,1-.2.182.647.647,0,0,1-.346.048c-.139-.012-.3-.021-.478-.026a4.025,4.025,0,0,0-.593.029,2.181,2.181,0,0,0-.7.22,1.6,1.6,0,0,0-.838.773,1.089,1.089,0,0,0,.048.924.8.8,0,0,0,.425.412,1.735,1.735,0,0,0,.638.111,4.84,4.84,0,0,0,.79-.067c.285-.046.579-.087.882-.125a7.579,7.579,0,0,1,.916-.055,2.963,2.963,0,0,1,.888.134,2.322,2.322,0,0,1,.8.444,2.638,2.638,0,0,1,.655.883,3.464,3.464,0,0,1,.355,1.273,3.064,3.064,0,0,1-.16,1.256,3.231,3.231,0,0,1-.7,1.132,4.168,4.168,0,0,1-1.247.9,4.828,4.828,0,0,1-.907.335,5.584,5.584,0,0,1-.95.162,5.037,5.037,0,0,1-.936-.009,3.679,3.679,0,0,1-.856-.188l.116-1.164a.621.621,0,0,1,.1-.256.517.517,0,0,1,.206-.183.732.732,0,0,1,.42-.05c.167.022.357.044.57.064a3.85,3.85,0,0,0,.7,0,2.389,2.389,0,0,0,.838-.255,1.733,1.733,0,0,0,.874-.8,1.237,1.237,0,0,0-.08-1.077.936.936,0,0,0-.454-.471,1.6,1.6,0,0,0-.643-.129,4.055,4.055,0,0,0-.782.076c-.282.052-.572.1-.873.143a6.9,6.9,0,0,1-.909.071,2.62,2.62,0,0,1-.887-.141,2.459,2.459,0,0,1-.82-.487,3.081,3.081,0,0,1-.7-.975,2.812,2.812,0,0,1-.107-2.223,3.266,3.266,0,0,1,.665-1.067,3.9,3.9,0,0,1,1.193-.866,4.957,4.957,0,0,1,1.65-.493,3.823,3.823,0,0,1,1.531.126Z"/>
        </g>
      </g>
      <circle id="Ellipse_5" data-name="Ellipse 5" cx="1.661" cy="1.661" r="1.661" transform="translate(1017.148 339.049)"/>
      <circle id="Ellipse_6" data-name="Ellipse 6" cx="1.661" cy="1.661" r="1.661" transform="translate(1045.906 472.368)"/>
    </g>
    <g id="Group_145" data-name="Group 145" transform="translate(-202.615 2947.743)">
      <path id="Path_81" data-name="Path 81" d="M770.466,94.731h2.087c-.128-.381-.489-.528-1.056-.528-.542,0-.9.147-1.031.528m2.106.8h.943c-.19.7-.816,1.109-1.969,1.109-1.266,0-2.086-.513-2.086-1.549s.865-1.549,2.037-1.549c1.207,0,2.048.5,2.048,1.725h-3.118c.073.484.474.65,1.148.65.616,0,.88-.156,1-.386" transform="translate(-4.426 -0.509)" fill="#018c75"/>
      <path id="Path_82" data-name="Path 82" d="M775.876,96.6l1.583-1.451L775.876,93.7h1.275l.928.933.928-.933h1.276L778.7,95.147l1.584,1.451h-1.276l-.928-.933-.928.933Z" transform="translate(-6.729 -0.564)" fill="#018c75"/>
      <path id="Path_83" data-name="Path 83" d="M784.849,93.544c1.148,0,1.866.41,2.018,1.256h-.973c-.108-.313-.425-.5-1.046-.5-.7,0-1.1.235-1.1.792s.4.792,1.1.792c.621,0,.938-.181,1.046-.5h.973c-.152.846-.87,1.256-2.018,1.256-1.28,0-2.052-.513-2.052-1.549s.772-1.549,2.052-1.549" transform="translate(-9.213 -0.509)" fill="#018c75"/>
      <path id="Path_84" data-name="Path 84" d="M794.207,94.521v1.515h-.938v-1.2c0-.669-.249-1.011-1.026-1.011s-1.27.347-1.27,1.065v1.144h-.943V92.126h.943V93.8a1.99,1.99,0,0,1,1.685-.762c.928,0,1.544.4,1.549,1.485" transform="translate(-11.809)" fill="#018c75"/>
      <path id="Path_85" data-name="Path 85" d="M800.428,95.674v-.249a6.057,6.057,0,0,0-1.29-.147c-.552,0-.831.093-.831.332s.22.308.68.308a6.78,6.78,0,0,0,1.441-.244m.943-.615v1.485h-.943v-.376a3.74,3.74,0,0,1-1.759.44c-.811,0-1.353-.264-1.353-.948,0-.782.85-1,1.705-1a6.134,6.134,0,0,1,1.407.176c-.029-.508-.567-.6-1.046-.6a6.322,6.322,0,0,0-1.646.239l-.181-.664a7.941,7.941,0,0,1,1.984-.264c1.221,0,1.823.4,1.832,1.515" transform="translate(-14.423 -0.509)" fill="#018c75"/>
      <path id="Path_86" data-name="Path 86" d="M808.741,95.029v1.515H807.8v-1.2c0-.669-.249-1.011-1.026-1.011s-1.27.347-1.27,1.065v1.144h-.943v-2.9h.943v.664a1.989,1.989,0,0,1,1.685-.762c.928,0,1.544.4,1.549,1.485" transform="translate(-17.025 -0.509)" fill="#018c75"/>
      <path id="Path_87" data-name="Path 87" d="M814.985,95.059c0-.455-.328-.723-1.055-.723s-1.056.269-1.056.723.328.723,1.056.723,1.055-.263,1.055-.723m0-1.417h.938v2.575c0,1.134-.625,1.6-1.827,1.6a8.7,8.7,0,0,1-1.989-.244l.107-.723a8.455,8.455,0,0,0,1.681.21c.734,0,1.09-.215,1.09-.86v-.22a1.652,1.652,0,0,1-1.407.6,1.524,1.524,0,1,1,0-3.029,1.652,1.652,0,0,1,1.407.6Z" transform="translate(-19.653 -0.509)" fill="#018c75"/>
      <path id="Path_88" data-name="Path 88" d="M820.028,94.731h2.087c-.128-.381-.489-.528-1.056-.528-.542,0-.9.147-1.031.528m2.106.8h.943c-.19.7-.816,1.109-1.969,1.109-1.265,0-2.086-.513-2.086-1.549s.865-1.549,2.037-1.549c1.207,0,2.048.5,2.048,1.725h-3.118c.073.484.474.65,1.148.65.616,0,.88-.156,1-.386" transform="translate(-22.213 -0.509)" fill="#018c75"/>
      <path id="Path_89" data-name="Path 89" d="M800.419,155.958c3.713,0,5.817,1.6,6.114,4.193h-3.106c-.2-.932-1.144-1.709-3.007-1.709-2.161,0-3.206,1.059-3.206,2.824s1.059,2.852,3.206,2.852c1.864,0,2.81-.79,3.007-1.737h3.106c-.3,2.612-2.4,4.222-6.114,4.222-4.052,0-6.269-1.878-6.269-5.337s2.217-5.309,6.269-5.309" transform="translate(-13.287 -22.909)" fill="#030504"/>
      <path id="Path_90" data-name="Path 90" d="M818.878,163.995h6.989v2.485h-9.912V156.4h2.923Z" transform="translate(-21.113 -23.067)" fill="#030504"/>
      <path id="Path_91" data-name="Path 91" d="M842.209,150.54v1.455l-5.492,1.129V151.67Zm2.189,6.043h-7.526v1.61h7.244v2.287h-7.244v1.609H844.4v2.287H833.949V154.3H844.4Z" transform="translate(-27.571 -20.965)" fill="#030504"/>
      <path id="Path_92" data-name="Path 92" d="M839.473,107.762a14.008,14.008,0,0,0-4.859-.719h.251v-1.459l7.894-1.1v-2.116L829.93,104v7.7h4.628c1.18,0,3.632,0,3.632,1.428s-2.452,1.055-3.787,1.055h-5.561v0h-.989V102.041h-4.418v12.136h-1.681a3.931,3.931,0,0,1-3.32-1.712,15.064,15.064,0,0,1-2.4-8.053s-5.167-1.094-9.331,4.524a2.216,2.216,0,0,0-.062,2.489,6.853,6.853,0,0,0,2.789,2.738s-33.531-.052-34.666-.052c-2.262,0-4.152.037-4.19-2.41-.06-3.966.022-6.055.022-6.055h-1.666v18.078a4.264,4.264,0,0,0,4.263,4.264h36.383c2.032,0,2.884-1.648,2.884-3.68l-.05-11.226a5.969,5.969,0,0,1-3.4-2.189c-.269-.454.31-1.049.723-1.383a5.9,5.9,0,0,1,4.508-1.4s.12,6.369.123,9.936A10.529,10.529,0,0,0,818,126.593a6.068,6.068,0,0,0,3.952,1.457l.225,0,1.384-1.835,1.384,1.835h3.393c11.1,0,14.55,1.617,14.5-13.7-.082-5.023-1.419-5.656-3.365-6.589" transform="translate(-4.236 -3.558)" fill="#030504"/>
      <rect id="Rectangle_111" data-name="Rectangle 111" width="4.487" height="4.487" transform="translate(757.128 113.988) rotate(-45)" fill="#018c75"/>
      <rect id="Rectangle_112" data-name="Rectangle 112" width="4.487" height="4.487" transform="translate(757.128 119.893) rotate(-45)" fill="#018c75"/>
    </g>
  </g>
</svg>
