<svg xmlns="http://www.w3.org/2000/svg" width="24.083" height="20.83" viewBox="0 0 24.083 20.83">
  <g id="Group_136" data-name="Group 136" transform="translate(-373.892 -360.898)">
    <path id="Path_34" data-name="Path 34" d="M374.892,367.708c0,7.809,11.041,13.02,11.041,13.02s11.041-6.063,11.041-13.02a5.811,5.811,0,0,0-11.041-2.532,5.811,5.811,0,0,0-11.041,2.532" transform="translate(0 0)" fill="none" stroke="#000" stroke-linecap="round" stroke-linejoin="round" stroke-width="2"/>
    <path id="Path_35" data-name="Path 35" d="M374.892,367.708c0,7.809,11.041,13.02,11.041,13.02s11.041-6.063,11.041-13.02a5.811,5.811,0,0,0-11.041-2.532,5.811,5.811,0,0,0-11.041,2.532" transform="translate(0 0)" fill="none" stroke="#000" stroke-linecap="round" stroke-linejoin="round" stroke-width="2"/>
  </g>
</svg>
