<svg xmlns="http://www.w3.org/2000/svg" width="18" height="19" viewBox="0 0 18 19">
  <path id="bell-solid" d="M9,19a2.479,2.479,0,0,0,2.57-2.375H6.429A2.479,2.479,0,0,0,9,19Zm8.654-5.556c-.776-.77-2.229-1.929-2.229-5.726a6,6,0,0,0-5.14-5.758V1.188A1.239,1.239,0,0,0,9,0,1.239,1.239,0,0,0,7.714,1.188v.773a6,6,0,0,0-5.14,5.758c0,3.8-1.452,4.955-2.229,5.726A1.113,1.113,0,0,0,0,14.25a1.239,1.239,0,0,0,1.29,1.188H16.71A1.239,1.239,0,0,0,18,14.25,1.112,1.112,0,0,0,17.653,13.444Z" transform="translate(0.001)" fill="#2e2baa"/>
</svg>
