<svg xmlns="http://www.w3.org/2000/svg" width="22" height="19" viewBox="0 0 22 19">
  <path id="gift-solid_1_" data-name="gift-solid (1)" d="M1.375,49.643A1.365,1.365,0,0,0,2.75,51H9.625V44.214H1.375Zm11,1.357H19.25a1.365,1.365,0,0,0,1.375-1.357V44.214h-8.25Zm8.25-13.571H18.816a3.66,3.66,0,0,0,.434-1.7A3.762,3.762,0,0,0,15.469,32c-1.788,0-2.943.9-4.426,2.9C9.561,32.9,8.4,32,6.617,32a3.762,3.762,0,0,0-3.781,3.732,3.608,3.608,0,0,0,.434,1.7H1.375A1.365,1.365,0,0,0,0,38.786v3.393a.685.685,0,0,0,.688.679H21.313A.685.685,0,0,0,22,42.179V38.786A1.365,1.365,0,0,0,20.625,37.429Zm-14.012,0a1.7,1.7,0,1,1,0-3.393c.855,0,1.487.14,3.7,3.393Zm8.856,0h-3.7c2.209-3.244,2.823-3.393,3.7-3.393a1.7,1.7,0,1,1,0,3.393Z" transform="translate(0 -32)" fill="#2e2baa"/>
</svg>
