<svg xmlns="http://www.w3.org/2000/svg" width="22.842" height="24" viewBox="0 0 22.842 24">
  <path id="bell-solid" d="M10.42,22A2.87,2.87,0,0,0,13.4,19.25H7.444A2.87,2.87,0,0,0,10.42,22Zm10.02-6.433c-.9-.892-2.581-2.234-2.581-6.63A6.951,6.951,0,0,0,11.908,2.27v-.9A1.435,1.435,0,0,0,10.42,0,1.435,1.435,0,0,0,8.933,1.375v.9A6.951,6.951,0,0,0,2.98,8.938c0,4.4-1.682,5.738-2.581,6.63A1.288,1.288,0,0,0,0,16.5a1.435,1.435,0,0,0,1.493,1.375H19.348A1.435,1.435,0,0,0,20.841,16.5,1.287,1.287,0,0,0,20.441,15.567Z" transform="translate(1.001 1)" fill="none" stroke="#000" stroke-width="2"/>
</svg>
